<svg xmlns="http://www.w3.org/2000/svg" xmlns:svg="http://www.w3.org/2000/svg" id="svg2" width="744.094" height="1052.362" version="1.1"><defs id="defs4"><marker id="Arrow1Lstart" orient="auto" overflow="visible" refX="0" refY="0"><path id="path4056" fill-rule="evenodd" stroke="#000" stroke-width="1pt" marker-start="none" d="M 0.0,0.0 L 5.0,-5.0 L -12.5,0.0 L 5.0,5.0 L 0.0,0.0 z" transform="scale(0.8) translate(12.5,0)"/></marker><marker id="Arrow2Send" orient="auto" overflow="visible" refX="0" refY="0"><path id="path3716" fill-rule="evenodd" stroke-linejoin="round" stroke-width=".625" d="M 8.7185878,4.0337352 L -2.2072895,0.016013256 L 8.7185884,-4.0017078 C 6.9730900,-1.6296469 6.9831476,1.6157441 8.7185878,4.0337352 z" font-size="12" transform="scale(0.3) rotate(180) translate(-2.3,0)"/></marker><marker id="Arrow2Lend" orient="auto" overflow="visible" refX="0" refY="0"><path id="path3704" fill-rule="evenodd" stroke-linejoin="round" stroke-width=".625" d="M 8.7185878,4.0337352 L -2.2072895,0.016013256 L 8.7185884,-4.0017078 C 6.9730900,-1.6296469 6.9831476,1.6157441 8.7185878,4.0337352 z" font-size="12" transform="scale(1.1) rotate(180) translate(1,0)"/></marker><marker id="Arrow1Mend" orient="auto" overflow="visible" refX="0" refY="0"><path id="path3713" fill-rule="evenodd" stroke="#000" stroke-width="1pt" marker-start="none" d="M 0.0,0.0 L 5.0,-5.0 L -12.5,0.0 L 5.0,5.0 L 0.0,0.0 z" transform="scale(0.4) rotate(180) translate(10,0)"/></marker><marker id="Arrow1Lend" orient="auto" overflow="visible" refX="0" refY="0"><path id="path3707" fill-rule="evenodd" stroke="#000" stroke-width="1pt" marker-start="none" d="M 0.0,0.0 L 5.0,-5.0 L -12.5,0.0 L 5.0,5.0 L 0.0,0.0 z" transform="scale(0.8) rotate(180) translate(12.5,0)"/></marker><marker id="Arrow1Mend-2" orient="auto" overflow="visible" refX="0" refY="0"><path id="path3713-9" fill-rule="evenodd" stroke="#000" stroke-width="1pt" marker-start="none" d="M 0,0 5,-5 -12.5,0 5,5 0,0 z" transform="matrix(-0.4,0,0,-0.4,-4,0)"/></marker><marker id="Arrow1Mend-1" orient="auto" overflow="visible" refX="0" refY="0"><path id="path3713-1" fill-rule="evenodd" stroke="#000" stroke-width="1pt" marker-start="none" d="M 0,0 5,-5 -12.5,0 5,5 0,0 z" transform="matrix(-0.4,0,0,-0.4,-4,0)"/></marker><marker id="Arrow1Mend-3" orient="auto" overflow="visible" refX="0" refY="0"><path id="path3713-6" fill-rule="evenodd" stroke="#000" stroke-width="1pt" marker-start="none" d="M 0,0 5,-5 -12.5,0 5,5 0,0 z" transform="matrix(-0.4,0,0,-0.4,-4,0)"/></marker><marker id="Arrow1Mend-21" orient="auto" overflow="visible" refX="0" refY="0"><path id="path3713-0" fill-rule="evenodd" stroke="#000" stroke-width="1pt" marker-start="none" d="M 0,0 5,-5 -12.5,0 5,5 0,0 z" transform="matrix(-0.4,0,0,-0.4,-4,0)"/></marker><marker id="Arrow1Mend-28" orient="auto" overflow="visible" refX="0" refY="0"><path id="path3713-4" fill-rule="evenodd" stroke="#000" stroke-width="1pt" marker-start="none" d="M 0,0 5,-5 -12.5,0 5,5 0,0 z" transform="matrix(-0.4,0,0,-0.4,-4,0)"/></marker><marker id="Arrow1Mend-28-6" orient="auto" overflow="visible" refX="0" refY="0"><path id="path3713-4-6" fill-rule="evenodd" stroke="#000" stroke-width="1pt" marker-start="none" d="M 0,0 5,-5 -12.5,0 5,5 0,0 z" transform="matrix(-0.4,0,0,-0.4,-4,0)"/></marker><marker id="Arrow1Mend-28-7" orient="auto" overflow="visible" refX="0" refY="0"><path id="path3713-4-1" fill-rule="evenodd" stroke="#000" stroke-width="1pt" marker-start="none" d="M 0,0 5,-5 -12.5,0 5,5 0,0 z" transform="matrix(-0.4,0,0,-0.4,-4,0)"/></marker><marker id="Arrow1Mend-28-9" orient="auto" overflow="visible" refX="0" refY="0"><path id="path3713-4-4" fill-rule="evenodd" stroke="#000" stroke-width="1pt" marker-start="none" d="M 0,0 5,-5 -12.5,0 5,5 0,0 z" transform="matrix(-0.4,0,0,-0.4,-4,0)"/></marker></defs><metadata id="metadata7"/><g id="layer1"><rect id="rect2822" width="58.571" height="40" x="88.571" y="106.648" fill="none" ry="11.429"/><rect id="rect2824" width="31.429" height="37.143" x="85.714" y="103.791" fill="none" ry="11.429"/><rect id="rect2826" width="38.571" height="31.429" x="68.571" y="42.362" fill="none" ry="11.429"/><rect id="rect3604" width="180" height="165.714" x="10" y="7.362" fill="none" stroke="#000" stroke-dasharray="none" stroke-miterlimit="4" stroke-opacity="1" stroke-width="1.02" ry="0"/><rect id="rect2826-8" width="38.571" height="31.429" x="120.964" y="76.898" fill="none" ry="11.429"/><rect id="rect3604-5" width="150" height="120.714" x="15" y="46.648" fill="none" stroke="#000" stroke-dasharray="none" stroke-miterlimit="4" stroke-opacity="1" stroke-width="1" ry="0"/><rect id="rect2826-85" width="38.571" height="31.429" x="192.393" y="74.041" fill="none" ry="11.429"/><rect id="rect3604-61" width="120" height="85.714" x="20" y="76.648" fill="none" stroke="#000" stroke-dasharray="none" stroke-miterlimit="4" stroke-opacity="1" stroke-width="1" ry="0"/><path id="path2894-3-5" fill="none" stroke="#000" stroke-dasharray="none" stroke-linecap="butt" stroke-linejoin="miter" stroke-miterlimit="4" stroke-opacity="1" stroke-width="1" marker-end="url(#Arrow1Mend)" marker-start="none" d="m 125,137.36218 c 72,0 90,0 90,0"/><text id="text5075-68" x="15" y="27.362" fill="#000" fill-opacity="1" stroke="none" font-family="DejaVu Sans Mono" font-size="16" font-stretch="normal" font-style="normal" font-variant="normal" font-weight="normal" text-anchor="start" writing-mode="lr-tb" xml:space="preserve" style="text-align:start;line-height:125%;-inkscape-font-specification:DejaVu Sans Mono"><tspan style="-inkscape-font-specification:Source Code Pro Light" id="tspan5077-9" x="15" y="27.362" font-family="Source Code Pro" font-stretch="normal" font-style="normal" font-variant="normal" font-weight="300">reflect.Ptr</tspan></text><path id="path3745" fill="none" stroke="#000" stroke-linecap="butt" stroke-linejoin="miter" stroke-opacity="1" stroke-width="1" d="m 10,42.36218 180,0"/><path id="path3753" fill="none" stroke="#000" stroke-linecap="butt" stroke-linejoin="miter" stroke-opacity="1" stroke-width="1" marker-end="url(#Arrow1Mend-28)" d="m 190,22.36218 c 0,0 29.21429,-5.64285 31,12.000001 -1,18.000002 -51,18.000002 -51,18.000002"/><text id="text5075-9" x="225" y="42.362" fill="#000" fill-opacity="1" stroke="none" font-family="DejaVu Sans Mono" font-size="16" font-stretch="normal" font-style="normal" font-variant="normal" font-weight="normal" text-anchor="start" writing-mode="lr-tb" xml:space="preserve" style="text-align:start;line-height:125%;-inkscape-font-specification:DejaVu Sans Mono"><tspan style="-inkscape-font-specification:Source Code Pro Light" id="tspan5077-28" x="225" y="42.362" font-family="Source Code Pro" font-stretch="normal" font-style="normal" font-variant="normal" font-weight="300">.Elem()</tspan></text><path id="path3745-4" fill="none" stroke="#000" stroke-linecap="butt" stroke-linejoin="miter" stroke-opacity="1" stroke-width=".913" d="m 15,72.36218 150,0"/><text id="text5075-68-9" x="25" y="62.362" fill="#000" fill-opacity="1" fill-rule="nonzero" stroke="none" baseline-shift="baseline" color="#000" direction="ltr" display="inline" enable-background="accumulate" font-family="Source Code Pro" font-size="16" font-stretch="normal" font-style="normal" font-variant="normal" font-weight="300" letter-spacing="normal" overflow="visible" text-anchor="start" text-decoration="none" visibility="visible" word-spacing="normal" writing-mode="lr-tb" xml:space="preserve" style="text-align:start;line-height:125%;-inkscape-font-specification:Source Code Pro Light;text-indent:0;text-transform:none;block-progression:tb;marker:none"><tspan id="tspan5077-9-2" x="25" y="62.362">reflect.Value</tspan></text><path id="path3753-4" fill="none" stroke="#000" stroke-dasharray="none" stroke-linecap="butt" stroke-linejoin="miter" stroke-miterlimit="4" stroke-opacity="1" stroke-width="1" marker-end="url(#Arrow1Mend-28)" d="m 164,60.36218 c 0,0 29.21429,-5.642857 31,12.000003 -1,18.000004 -51,18.000004 -51,18.000004"/><text id="text5075-9-9" x="200" y="77.362" fill="#000" fill-opacity="1" stroke="none" font-family="DejaVu Sans Mono" font-size="16" font-stretch="normal" font-style="normal" font-variant="normal" font-weight="normal" text-anchor="start" writing-mode="lr-tb" xml:space="preserve" style="text-align:start;line-height:125%;-inkscape-font-specification:DejaVu Sans Mono"><tspan style="-inkscape-font-specification:Source Code Pro Light" id="tspan5077-28-5" x="200" y="77.362" font-family="Source Code Pro" font-stretch="normal" font-style="normal" font-variant="normal" font-weight="300">.Field(0)</tspan></text><path id="path3745-4-0" fill="none" stroke="#000" stroke-linecap="butt" stroke-linejoin="miter" stroke-opacity="1" stroke-width=".816" d="m 20,97.36218 120,0"/><text id="text5075-9-9-4" x="25" y="87.362" fill="#000" fill-opacity="1" fill-rule="nonzero" stroke="none" baseline-shift="baseline" color="#000" direction="ltr" display="inline" enable-background="accumulate" font-family="Source Code Pro" font-size="16" font-stretch="normal" font-style="normal" font-variant="normal" font-weight="300" letter-spacing="normal" overflow="visible" text-anchor="start" text-decoration="none" visibility="visible" word-spacing="normal" writing-mode="lr-tb" xml:space="preserve" style="text-indent:0;text-align:start;line-height:125%;text-transform:none;block-progression:tb;marker:none;-inkscape-font-specification:Source Code Pro Light"><tspan id="tspan5077-28-5-8" x="25" y="87.362" font-size="10">reflect.StructField</tspan></text><path id="path3753-4-7-9" fill="none" stroke="#000" stroke-dasharray="none" stroke-linecap="butt" stroke-linejoin="miter" stroke-miterlimit="4" stroke-opacity="1" stroke-width="1" marker-end="url(#Arrow1Mend-28)" d="m 150.29796,97.362183 c 0,0 36.9531,-5.642861 39.21185,11.999997 -1.26489,18 -64.50981,18 -64.50981,18"/><text id="text5075-9-9-2-7" x="200" y="107.362" fill="#000" fill-opacity="1" stroke="none" font-family="DejaVu Sans Mono" font-size="12" font-stretch="normal" font-style="normal" font-variant="normal" font-weight="normal" text-anchor="start" writing-mode="lr-tb" xml:space="preserve" style="text-align:start;line-height:125%;-inkscape-font-specification:DejaVu Sans Mono"><tspan style="-inkscape-font-specification:Source Code Pro Light" id="tspan5077-28-5-7-1" x="200" y="107.362" font-family="Source Code Pro" font-stretch="normal" font-style="normal" font-variant="normal" font-weight="300">.String()</tspan></text><rect id="rect3604-61-6-7" width="90" height="30" x="30" y="107.362" fill="none" stroke="#000" stroke-dasharray="none" stroke-miterlimit="4" stroke-opacity="1" stroke-width=".512" ry="0"/><text id="text5075-9-9-2-7-6-3" x="220" y="142.362" fill="#000" fill-opacity="1" stroke="none" font-family="Droid Serif" font-size="12" font-stretch="normal" font-style="normal" font-variant="normal" font-weight="normal" text-anchor="start" writing-mode="lr-tb" xml:space="preserve" style="text-align:start;line-height:125%;-inkscape-font-specification:Droid Serif"><tspan style="-inkscape-font-specification:PT Sans" id="tspan5077-28-5-7-1-7-6" x="220" y="142.362" font-family="PT Sans" font-stretch="normal" font-style="normal" font-variant="normal" font-weight="normal">&quot;Albert Einstein&quot;</tspan></text><text id="text5075-9-9-2-7-6-3-8" x="30" y="127.362" fill="#000" fill-opacity="1" fill-rule="nonzero" stroke="none" baseline-shift="baseline" color="#000" direction="ltr" display="inline" enable-background="accumulate" font-family="Source Code Pro" font-size="16" font-stretch="normal" font-style="normal" font-variant="normal" font-weight="300" letter-spacing="normal" overflow="visible" text-anchor="start" text-decoration="none" visibility="visible" word-spacing="normal" writing-mode="lr-tb" xml:space="preserve" style="text-indent:0;text-align:start;line-height:125%;text-transform:none;block-progression:tb;marker:none;-inkscape-font-specification:Source Code Pro Light"><tspan id="tspan5077-28-5-7-1-7-6-4" x="30" y="127.362" font-size="9">&quot;Albert Einstein&quot;</tspan></text></g></svg>